<mxfile host="app.diagrams.net" modified="2023-02-01T01:12:27.109Z" agent="5.0 (X11)" etag="ZoFl8DID242gkADUvXAh" version="20.8.14" type="github">
  <diagram id="YbkainP55hzanAraKQav" name="Page-1">
    <mxGraphModel dx="1242" dy="636" grid="1" gridSize="10" guides="1" tooltips="1" connect="1" arrows="1" fold="1" page="1" pageScale="1" pageWidth="827" pageHeight="1169" math="0" shadow="0">
      <root>
        <mxCell id="0" />
        <mxCell id="1" parent="0" />
        <mxCell id="iZXNnLEXLb7nlVbUgUFV-6" value="" style="rounded=0;whiteSpace=wrap;html=1;" parent="1" vertex="1">
          <mxGeometry x="820" y="10" width="200" height="490" as="geometry" />
        </mxCell>
        <mxCell id="5fgYvhCfNTWPp-rmczzZ-32" style="edgeStyle=entityRelationEdgeStyle;rounded=0;orthogonalLoop=1;jettySize=auto;html=1;fontColor=#000000;" parent="1" source="5fgYvhCfNTWPp-rmczzZ-1" target="5fgYvhCfNTWPp-rmczzZ-3" edge="1">
          <mxGeometry relative="1" as="geometry" />
        </mxCell>
        <mxCell id="5fgYvhCfNTWPp-rmczzZ-1" value="s" style="rounded=1;whiteSpace=wrap;html=1;fontColor=#000000;" parent="1" vertex="1">
          <mxGeometry x="210" width="120" height="60" as="geometry" />
        </mxCell>
        <mxCell id="5fgYvhCfNTWPp-rmczzZ-34" style="edgeStyle=entityRelationEdgeStyle;rounded=0;orthogonalLoop=1;jettySize=auto;html=1;fontColor=#000000;" parent="1" source="5fgYvhCfNTWPp-rmczzZ-2" target="5fgYvhCfNTWPp-rmczzZ-3" edge="1">
          <mxGeometry relative="1" as="geometry" />
        </mxCell>
        <mxCell id="5fgYvhCfNTWPp-rmczzZ-2" value="ss" style="rounded=1;whiteSpace=wrap;html=1;" parent="1" vertex="1">
          <mxGeometry x="210" y="80" width="120" height="60" as="geometry" />
        </mxCell>
        <mxCell id="5fgYvhCfNTWPp-rmczzZ-3" value="s" style="shape=parallelogram;perimeter=parallelogramPerimeter;whiteSpace=wrap;html=1;fixedSize=1;" parent="1" vertex="1">
          <mxGeometry x="640" y="80" width="120" height="60" as="geometry" />
        </mxCell>
        <mxCell id="5fgYvhCfNTWPp-rmczzZ-4" value="&lt;span class=&quot;IPA&quot; lang=&quot;und-fonipa&quot;&gt;&lt;a title=&quot;Voiceless postalveolar fricative&quot; href=&quot;https://en.wikipedia.org/wiki/Voiceless_postalveolar_fricative&quot;&gt;ʃ&lt;/a&gt;&lt;/span&gt;" style="shape=parallelogram;perimeter=parallelogramPerimeter;whiteSpace=wrap;html=1;fixedSize=1;" parent="1" vertex="1">
          <mxGeometry x="640" y="800" width="120" height="60" as="geometry" />
        </mxCell>
        <mxCell id="5fgYvhCfNTWPp-rmczzZ-6" value="z" style="shape=parallelogram;perimeter=parallelogramPerimeter;whiteSpace=wrap;html=1;fixedSize=1;" parent="1" vertex="1">
          <mxGeometry x="640" y="240" width="120" height="60" as="geometry" />
        </mxCell>
        <mxCell id="5fgYvhCfNTWPp-rmczzZ-11" value="dz" style="shape=parallelogram;perimeter=parallelogramPerimeter;whiteSpace=wrap;html=1;fixedSize=1;" parent="1" vertex="1">
          <mxGeometry x="864" y="400" width="120" height="60" as="geometry" />
        </mxCell>
        <mxCell id="5fgYvhCfNTWPp-rmczzZ-12" value="ts" style="shape=parallelogram;perimeter=parallelogramPerimeter;whiteSpace=wrap;html=1;fixedSize=1;" parent="1" vertex="1">
          <mxGeometry x="640" y="640" width="120" height="60" as="geometry" />
        </mxCell>
        <mxCell id="5fgYvhCfNTWPp-rmczzZ-43" style="edgeStyle=entityRelationEdgeStyle;rounded=0;orthogonalLoop=1;jettySize=auto;html=1;fontColor=#000000;" parent="1" source="5fgYvhCfNTWPp-rmczzZ-14" target="5fgYvhCfNTWPp-rmczzZ-3" edge="1">
          <mxGeometry relative="1" as="geometry">
            <mxPoint x="650" y="490" as="targetPoint" />
          </mxGeometry>
        </mxCell>
        <mxCell id="5fgYvhCfNTWPp-rmczzZ-14" value="c[ie]" style="rounded=1;whiteSpace=wrap;html=1;" parent="1" vertex="1">
          <mxGeometry x="210" y="160" width="120" height="60" as="geometry" />
        </mxCell>
        <mxCell id="5fgYvhCfNTWPp-rmczzZ-36" style="edgeStyle=entityRelationEdgeStyle;rounded=0;orthogonalLoop=1;jettySize=auto;html=1;fontColor=#000000;" parent="1" source="5fgYvhCfNTWPp-rmczzZ-15" target="5fgYvhCfNTWPp-rmczzZ-6" edge="1">
          <mxGeometry relative="1" as="geometry" />
        </mxCell>
        <mxCell id="5fgYvhCfNTWPp-rmczzZ-15" value="z" style="rounded=1;whiteSpace=wrap;html=1;" parent="1" vertex="1">
          <mxGeometry x="210" y="320" width="120" height="60" as="geometry" />
        </mxCell>
        <mxCell id="5fgYvhCfNTWPp-rmczzZ-37" style="edgeStyle=entityRelationEdgeStyle;rounded=0;orthogonalLoop=1;jettySize=auto;html=1;fontColor=#000000;" parent="1" source="5fgYvhCfNTWPp-rmczzZ-16" target="5fgYvhCfNTWPp-rmczzZ-12" edge="1">
          <mxGeometry relative="1" as="geometry" />
        </mxCell>
        <mxCell id="5fgYvhCfNTWPp-rmczzZ-16" value="zz" style="rounded=1;whiteSpace=wrap;html=1;" parent="1" vertex="1">
          <mxGeometry x="210" y="640" width="120" height="60" as="geometry" />
        </mxCell>
        <mxCell id="5fgYvhCfNTWPp-rmczzZ-33" style="edgeStyle=entityRelationEdgeStyle;rounded=0;orthogonalLoop=1;jettySize=auto;html=1;fontColor=#000000;" parent="1" source="5fgYvhCfNTWPp-rmczzZ-17" target="5fgYvhCfNTWPp-rmczzZ-6" edge="1">
          <mxGeometry relative="1" as="geometry" />
        </mxCell>
        <mxCell id="5fgYvhCfNTWPp-rmczzZ-17" value="[aeiou]s[aeiou]" style="rounded=1;whiteSpace=wrap;html=1;" parent="1" vertex="1">
          <mxGeometry x="210" y="240" width="120" height="60" as="geometry" />
        </mxCell>
        <mxCell id="5fgYvhCfNTWPp-rmczzZ-35" style="edgeStyle=entityRelationEdgeStyle;rounded=0;orthogonalLoop=1;jettySize=auto;html=1;fontColor=#000000;" parent="1" source="5fgYvhCfNTWPp-rmczzZ-18" target="5fgYvhCfNTWPp-rmczzZ-29" edge="1">
          <mxGeometry relative="1" as="geometry" />
        </mxCell>
        <mxCell id="5fgYvhCfNTWPp-rmczzZ-18" value="g[ie]" style="rounded=1;whiteSpace=wrap;html=1;" parent="1" vertex="1">
          <mxGeometry x="210" y="400" width="120" height="60" as="geometry" />
        </mxCell>
        <mxCell id="5fgYvhCfNTWPp-rmczzZ-38" style="edgeStyle=entityRelationEdgeStyle;rounded=0;orthogonalLoop=1;jettySize=auto;html=1;fontColor=#000000;" parent="1" source="5fgYvhCfNTWPp-rmczzZ-19" target="5fgYvhCfNTWPp-rmczzZ-4" edge="1">
          <mxGeometry relative="1" as="geometry" />
        </mxCell>
        <mxCell id="5fgYvhCfNTWPp-rmczzZ-19" value="ch" style="rounded=1;whiteSpace=wrap;html=1;fontColor=#000000;" parent="1" vertex="1">
          <mxGeometry x="210" y="800" width="120" height="60" as="geometry" />
        </mxCell>
        <mxCell id="5fgYvhCfNTWPp-rmczzZ-39" style="edgeStyle=entityRelationEdgeStyle;rounded=0;orthogonalLoop=1;jettySize=auto;html=1;fontColor=#000000;" parent="1" source="5fgYvhCfNTWPp-rmczzZ-20" target="5fgYvhCfNTWPp-rmczzZ-29" edge="1">
          <mxGeometry relative="1" as="geometry" />
        </mxCell>
        <mxCell id="5fgYvhCfNTWPp-rmczzZ-20" value="j" style="rounded=1;whiteSpace=wrap;html=1;fontColor=#000000;" parent="1" vertex="1">
          <mxGeometry x="210" y="480" width="120" height="60" as="geometry" />
        </mxCell>
        <mxCell id="5fgYvhCfNTWPp-rmczzZ-42" style="edgeStyle=entityRelationEdgeStyle;rounded=0;orthogonalLoop=1;jettySize=auto;html=1;fontColor=#000000;" parent="1" source="5fgYvhCfNTWPp-rmczzZ-23" target="5fgYvhCfNTWPp-rmczzZ-12" edge="1">
          <mxGeometry relative="1" as="geometry">
            <mxPoint x="650" y="725.5" as="targetPoint" />
          </mxGeometry>
        </mxCell>
        <mxCell id="5fgYvhCfNTWPp-rmczzZ-23" value="[^s]ti[aoue]" style="rounded=1;whiteSpace=wrap;html=1;fontColor=#000000;" parent="1" vertex="1">
          <mxGeometry x="210" y="720" width="120" height="60" as="geometry" />
        </mxCell>
        <mxCell id="5fgYvhCfNTWPp-rmczzZ-24" value="sts" style="shape=parallelogram;perimeter=parallelogramPerimeter;whiteSpace=wrap;html=1;fixedSize=1;fontColor=#000000;" parent="1" vertex="1">
          <mxGeometry x="864" y="320" width="120" height="60" as="geometry" />
        </mxCell>
        <mxCell id="5fgYvhCfNTWPp-rmczzZ-40" style="edgeStyle=entityRelationEdgeStyle;rounded=0;orthogonalLoop=1;jettySize=auto;html=1;fontColor=#000000;" parent="1" source="5fgYvhCfNTWPp-rmczzZ-25" target="iZXNnLEXLb7nlVbUgUFV-4" edge="1">
          <mxGeometry relative="1" as="geometry">
            <mxPoint x="630" y="960" as="targetPoint" />
          </mxGeometry>
        </mxCell>
        <mxCell id="5fgYvhCfNTWPp-rmczzZ-25" value="sc[ie]" style="rounded=1;whiteSpace=wrap;html=1;fontColor=#000000;" parent="1" vertex="1">
          <mxGeometry x="210" y="960" width="120" height="60" as="geometry" />
        </mxCell>
        <mxCell id="5fgYvhCfNTWPp-rmczzZ-41" style="edgeStyle=entityRelationEdgeStyle;rounded=0;orthogonalLoop=1;jettySize=auto;html=1;fontColor=#000000;" parent="1" source="5fgYvhCfNTWPp-rmczzZ-26" target="HDc2UItaf2_tcFTCwjuI-39" edge="1">
          <mxGeometry relative="1" as="geometry" />
        </mxCell>
        <mxCell id="5fgYvhCfNTWPp-rmczzZ-26" value="xc[ie]" style="rounded=1;whiteSpace=wrap;html=1;fontColor=#000000;" parent="1" vertex="1">
          <mxGeometry x="210" y="1040" width="120" height="60" as="geometry" />
        </mxCell>
        <mxCell id="5fgYvhCfNTWPp-rmczzZ-27" value="ksts" style="shape=parallelogram;perimeter=parallelogramPerimeter;whiteSpace=wrap;html=1;fixedSize=1;fontColor=#000000;" parent="1" vertex="1">
          <mxGeometry x="864" y="240" width="120" height="60" as="geometry" />
        </mxCell>
        <mxCell id="5fgYvhCfNTWPp-rmczzZ-29" value="&lt;span style=&quot;font-size: 120%;&quot;&gt;&lt;span class=&quot;IPA&quot; title=&quot;Representation in the International Phonetic Alphabet (IPA)&quot; lang=&quot;und-Latn-fonipa&quot;&gt;ʒ&lt;/span&gt;&lt;/span&gt;" style="shape=parallelogram;perimeter=parallelogramPerimeter;whiteSpace=wrap;html=1;fixedSize=1;" parent="1" vertex="1">
          <mxGeometry x="640" y="400" width="120" height="60" as="geometry" />
        </mxCell>
        <mxCell id="HDc2UItaf2_tcFTCwjuI-8" value="&lt;span style=&quot;font-size: 120%;&quot;&gt;&lt;span class=&quot;IPA&quot; title=&quot;Representation in the International Phonetic Alphabet (IPA)&quot; lang=&quot;und-Latn-fonipa&quot;&gt;tʃ&lt;/span&gt;&lt;/span&gt;" style="shape=parallelogram;perimeter=parallelogramPerimeter;whiteSpace=wrap;html=1;fixedSize=1;" parent="1" vertex="1">
          <mxGeometry x="640" y="560" width="120" height="60" as="geometry" />
        </mxCell>
        <mxCell id="HDc2UItaf2_tcFTCwjuI-9" value="&lt;span style=&quot;font-size: 120%;&quot;&gt;&lt;span class=&quot;IPA&quot; title=&quot;Representation in the International Phonetic Alphabet (IPA)&quot; lang=&quot;und-Latn-fonipa&quot;&gt;dʒ&lt;/span&gt;&lt;/span&gt;" style="shape=parallelogram;perimeter=parallelogramPerimeter;whiteSpace=wrap;html=1;fixedSize=1;" parent="1" vertex="1">
          <mxGeometry x="640" y="1360" width="120" height="60" as="geometry" />
        </mxCell>
        <mxCell id="HDc2UItaf2_tcFTCwjuI-35" style="edgeStyle=entityRelationEdgeStyle;rounded=0;orthogonalLoop=1;jettySize=auto;html=1;fontColor=#000000;" parent="1" source="HDc2UItaf2_tcFTCwjuI-36" target="HDc2UItaf2_tcFTCwjuI-8" edge="1">
          <mxGeometry relative="1" as="geometry" />
        </mxCell>
        <mxCell id="HDc2UItaf2_tcFTCwjuI-36" value="tch" style="rounded=1;whiteSpace=wrap;html=1;fontColor=#000000;" parent="1" vertex="1">
          <mxGeometry x="210" y="560" width="120" height="60" as="geometry" />
        </mxCell>
        <mxCell id="HDc2UItaf2_tcFTCwjuI-37" style="edgeStyle=entityRelationEdgeStyle;rounded=0;orthogonalLoop=1;jettySize=auto;html=1;fontColor=#000000;" parent="1" source="HDc2UItaf2_tcFTCwjuI-38" target="HDc2UItaf2_tcFTCwjuI-39" edge="1">
          <mxGeometry relative="1" as="geometry" />
        </mxCell>
        <mxCell id="HDc2UItaf2_tcFTCwjuI-38" value="x" style="rounded=1;whiteSpace=wrap;html=1;fontColor=#000000;" parent="1" vertex="1">
          <mxGeometry x="210" y="1120" width="120" height="60" as="geometry" />
        </mxCell>
        <mxCell id="HDc2UItaf2_tcFTCwjuI-39" value="ks" style="shape=parallelogram;perimeter=parallelogramPerimeter;whiteSpace=wrap;html=1;fixedSize=1;" parent="1" vertex="1">
          <mxGeometry x="640" y="1120" width="120" height="60" as="geometry" />
        </mxCell>
        <mxCell id="HDc2UItaf2_tcFTCwjuI-40" style="edgeStyle=entityRelationEdgeStyle;rounded=0;orthogonalLoop=1;jettySize=auto;html=1;fontColor=#000000;" parent="1" source="HDc2UItaf2_tcFTCwjuI-41" target="HDc2UItaf2_tcFTCwjuI-9" edge="1">
          <mxGeometry relative="1" as="geometry" />
        </mxCell>
        <mxCell id="HDc2UItaf2_tcFTCwjuI-41" value="dj" style="rounded=1;whiteSpace=wrap;html=1;fontColor=#000000;" parent="1" vertex="1">
          <mxGeometry x="210" y="1280" width="120" height="60" as="geometry" />
        </mxCell>
        <mxCell id="HDc2UItaf2_tcFTCwjuI-42" style="edgeStyle=entityRelationEdgeStyle;rounded=0;orthogonalLoop=1;jettySize=auto;html=1;fontColor=#000000;" parent="1" source="HDc2UItaf2_tcFTCwjuI-43" target="HDc2UItaf2_tcFTCwjuI-9" edge="1">
          <mxGeometry relative="1" as="geometry" />
        </mxCell>
        <mxCell id="HDc2UItaf2_tcFTCwjuI-43" value="dg[ie]" style="rounded=1;whiteSpace=wrap;html=1;fontColor=#000000;" parent="1" vertex="1">
          <mxGeometry x="210" y="1360" width="120" height="60" as="geometry" />
        </mxCell>
        <mxCell id="HDc2UItaf2_tcFTCwjuI-44" style="edgeStyle=entityRelationEdgeStyle;rounded=0;orthogonalLoop=1;jettySize=auto;html=1;fontColor=#000000;" parent="1" source="HDc2UItaf2_tcFTCwjuI-45" target="5fgYvhCfNTWPp-rmczzZ-4" edge="1">
          <mxGeometry relative="1" as="geometry">
            <mxPoint x="650" y="1470" as="targetPoint" />
          </mxGeometry>
        </mxCell>
        <mxCell id="HDc2UItaf2_tcFTCwjuI-45" value="sh" style="rounded=1;whiteSpace=wrap;html=1;fontColor=#000000;" parent="1" vertex="1">
          <mxGeometry x="210" y="880.5" width="120" height="60" as="geometry" />
        </mxCell>
        <mxCell id="HDc2UItaf2_tcFTCwjuI-46" style="edgeStyle=entityRelationEdgeStyle;rounded=0;orthogonalLoop=1;jettySize=auto;html=1;fontColor=#000000;" parent="1" source="HDc2UItaf2_tcFTCwjuI-47" target="HDc2UItaf2_tcFTCwjuI-39" edge="1">
          <mxGeometry relative="1" as="geometry" />
        </mxCell>
        <mxCell id="HDc2UItaf2_tcFTCwjuI-47" value="cc[ie]" style="rounded=1;whiteSpace=wrap;html=1;fontColor=#000000;" parent="1" vertex="1">
          <mxGeometry x="210" y="1200" width="120" height="60" as="geometry" />
        </mxCell>
        <mxCell id="HDc2UItaf2_tcFTCwjuI-48" value="kts" style="shape=parallelogram;perimeter=parallelogramPerimeter;whiteSpace=wrap;html=1;fixedSize=1;fontColor=#000000;" parent="1" vertex="1">
          <mxGeometry x="864" y="160" width="120" height="60" as="geometry" />
        </mxCell>
        <mxCell id="HDc2UItaf2_tcFTCwjuI-49" style="edgeStyle=entityRelationEdgeStyle;rounded=0;orthogonalLoop=1;jettySize=auto;html=1;fontColor=#000000;" parent="1" source="HDc2UItaf2_tcFTCwjuI-50" target="HDc2UItaf2_tcFTCwjuI-9" edge="1">
          <mxGeometry relative="1" as="geometry" />
        </mxCell>
        <mxCell id="HDc2UItaf2_tcFTCwjuI-50" value="gg[ie]" style="rounded=1;whiteSpace=wrap;html=1;fontColor=#000000;" parent="1" vertex="1">
          <mxGeometry x="210" y="1440" width="120" height="60" as="geometry" />
        </mxCell>
        <mxCell id="HDc2UItaf2_tcFTCwjuI-51" value="g&lt;span style=&quot;font-size: 120%;&quot;&gt;&lt;span class=&quot;IPA&quot; title=&quot;Representation in the International Phonetic Alphabet (IPA)&quot; lang=&quot;und-Latn-fonipa&quot;&gt;ʒ&lt;/span&gt;&lt;/span&gt;" style="shape=parallelogram;perimeter=parallelogramPerimeter;whiteSpace=wrap;html=1;fixedSize=1;fontColor=#000000;" parent="1" vertex="1">
          <mxGeometry x="864" y="80" width="120" height="60" as="geometry" />
        </mxCell>
        <mxCell id="iZXNnLEXLb7nlVbUgUFV-4" value="sk" style="shape=parallelogram;perimeter=parallelogramPerimeter;whiteSpace=wrap;html=1;fixedSize=1;" parent="1" vertex="1">
          <mxGeometry x="640" y="960" width="120" height="60" as="geometry" />
        </mxCell>
        <mxCell id="iZXNnLEXLb7nlVbUgUFV-5" value="" style="html=1;verticalLabelPosition=bottom;align=center;labelBackgroundColor=#ffffff;verticalAlign=top;strokeWidth=2;strokeColor=#0080F0;shadow=0;dashed=0;shape=mxgraph.ios7.icons.trashcan;" parent="1" vertex="1">
          <mxGeometry x="840" y="20" width="24" height="30" as="geometry" />
        </mxCell>
        <mxCell id="GTz973H2v1kcNFxzBQoP-4" value="NEW" style="dashed=0;html=1;rounded=1;strokeColor=#6554C0;fontSize=12;align=center;fontStyle=1;strokeWidth=2;fontColor=#6554C0" parent="1" vertex="1">
          <mxGeometry x="680" y="960" width="50" height="20" as="geometry" />
        </mxCell>
        <mxCell id="hGj3xvj4yGpbjQCEN98F-3" style="edgeStyle=orthogonalEdgeStyle;rounded=0;orthogonalLoop=1;jettySize=auto;html=1;" edge="1" parent="1" source="hGj3xvj4yGpbjQCEN98F-1" target="hGj3xvj4yGpbjQCEN98F-2">
          <mxGeometry relative="1" as="geometry" />
        </mxCell>
        <mxCell id="hGj3xvj4yGpbjQCEN98F-1" value="qu[ie]" style="rounded=1;whiteSpace=wrap;html=1;fontColor=#000000;" vertex="1" parent="1">
          <mxGeometry x="210" y="1520" width="120" height="60" as="geometry" />
        </mxCell>
        <mxCell id="hGj3xvj4yGpbjQCEN98F-2" value="k" style="shape=parallelogram;perimeter=parallelogramPerimeter;whiteSpace=wrap;html=1;fixedSize=1;" vertex="1" parent="1">
          <mxGeometry x="640" y="1520" width="120" height="60" as="geometry" />
        </mxCell>
      </root>
    </mxGraphModel>
  </diagram>
</mxfile>
